<?xml version="1.0" encoding="UTF-8" standalone="no"?>
<svg
   xmlns:dc="http://purl.org/dc/elements/1.1/"
   xmlns:cc="http://creativecommons.org/ns#"
   xmlns:rdf="http://www.w3.org/1999/02/22-rdf-syntax-ns#"
   xmlns:svg="http://www.w3.org/2000/svg"
   xmlns="http://www.w3.org/2000/svg"
   xmlns:sodipodi="http://sodipodi.sourceforge.net/DTD/sodipodi-0.dtd"
   xmlns:inkscape="http://www.inkscape.org/namespaces/inkscape"
   version="1.1"
   id="Layer_1"
   x="0px"
   y="0px"
   width="149.167px"
   height="172.243px"
   viewBox="0 0 149.167 172.243"
   enable-background="new 0 0 149.167 172.243"
   xml:space="preserve"
   inkscape:version="0.48.4 r9939"
   sodipodi:docname="logo.svg"><metadata
     id="metadata3965"><rdf:RDF><cc:Work
         rdf:about=""><dc:format>image/svg+xml</dc:format><dc:type
           rdf:resource="http://purl.org/dc/dcmitype/StillImage" /></cc:Work></rdf:RDF></metadata><defs
     id="defs3963" /><sodipodi:namedview
     pagecolor="#ffffff"
     bordercolor="#666666"
     borderopacity="1"
     objecttolerance="10"
     gridtolerance="10"
     guidetolerance="10"
     inkscape:pageopacity="0"
     inkscape:pageshadow="2"
     inkscape:window-width="1158"
     inkscape:window-height="661"
     id="namedview3961"
     showgrid="false"
     inkscape:zoom="1.937695"
     inkscape:cx="97.64666"
     inkscape:cy="122.61366"
     inkscape:window-x="50"
     inkscape:window-y="18"
     inkscape:window-maximized="0"
     inkscape:current-layer="Layer_1" /><polygon
     fill="#585858"
     points="149.167,129.183 74.583,172.243 0,129.183 0,43.061 74.583,0 149.167,43.061 "
     id="polygon3957"
     style="fill:#808080" /><path
     d="m -101.89911,78.181411 25.089996,26.782999 -12.081,-26.782999 h -13.008996 z m 32.702996,31.090999 14.057,-31.090999 h -28.113 l 14.056,31.090999 z m -19.574,-36.246999 8.217,-15.466 h -10.553 l -11.599996,15.466 h 13.935996 z m 27.187,31.938999 25.091,-26.782999 h -13.01 l -12.081,26.782999 z m -21.347,-31.938999 h 27.469 l -8.217,-15.466 h -11.036 l -8.216,15.466 z m 33.308,0 h 13.936 l -11.599,-15.466 h -10.552 l 8.215,15.466 z m 5.678,-19.574 15.467,20.621 c 0.376,0.483 0.55,1.04 0.523,1.671 -0.027,0.632 -0.257,1.174 -0.686,1.632 l -38.664,41.242999 c -0.483,0.536 -1.113,0.804 -1.893,0.804 -0.778,0 -1.408,-0.268 -1.892,-0.804 L -109.75311,77.375411 c -0.429,-0.457 -0.658,-1 -0.685,-1.632 -0.027,-0.631 0.147,-1.188 0.523,-1.671 l 15.466996,-20.621 c 0.484,-0.699 1.168,-1.047 2.054,-1.047 h 46.398 c 0.884,0 1.57,0.349 2.052,1.047 z"
     id="path3959"
     inkscape:connector-curvature="0"
     style="fill:#000000" /><path
     style="fill:none;stroke:#ffffff;stroke-width:7.52780867;stroke-linecap:butt;stroke-linejoin:miter;stroke-opacity:1"
     d="m 257.90878,-16.682355 42.8601,-0.477414 -17.61058,32.111298 16.91785,0.702747 -17.5085,27.275533 9.67878,-0.141272 -47.77532,53.245047 10.3397,-47.815214 -9.34068,0.493951 11.04048,-31.90446 -11.06043,0.112165 z"
     id="path3101"
     inkscape:connector-curvature="0"
     inkscape:export-filename="/home/dan/CVSOPWebsite/home/images/path3103.png"
     inkscape:export-xdpi="92"
     inkscape:export-ydpi="92" /><path
     style="fill:none;stroke:#ffffff;stroke-width:7.00000015;stroke-linecap:butt;stroke-linejoin:miter;stroke-miterlimit:4;stroke-opacity:1;stroke-dasharray:none"
     d="m 55.361933,15.581364 37.775973,0.383519 -17.449811,46.59676 37.008965,-10.163081 c 3.533,-0.430797 4.18457,1.659704 3.64336,4.793895 L 68.976606,158.43975 c -2.695943,5.16552 -8.738462,3.64687 -8.245487,-1.72582 L 78.372703,85.572412 40.596702,95.351976 c -5.306265,1.087372 -4.287547,-2.568968 -3.643364,-5.944453 z"
     id="path4570"
     inkscape:connector-curvature="0"
     sodipodi:nodetypes="ccccccccccc"
     inkscape:export-filename="/home/dan/CVSOPWebsite/home/images/LByellow.png"
     inkscape:export-xdpi="92"
     inkscape:export-ydpi="92" /></svg>